<?xml version="1.0" standalone="no"?>
<!DOCTYPE svg PUBLIC "-//W3C//DTD SVG 20010904//EN"
 "http://www.w3.org/TR/2001/REC-SVG-20010904/DTD/svg10.dtd">
<svg version="1.0" xmlns="http://www.w3.org/2000/svg"
 width="840.000000pt" height="929.000000pt" viewBox="0 0 840.000000 929.000000"
 preserveAspectRatio="xMidYMid meet">

<g transform="translate(0.000000,929.000000) scale(0.100000,-0.100000)"
fill="#000000" stroke="none">
<path d="M3398 8600 c-456 -152 -831 -280 -834 -283 -4 -4 -22 -90 -40 -193
-82 -461 -168 -871 -384 -1844 -60 -272 -144 -670 -187 -885 -42 -214 -78
-392 -79 -394 -2 -2 -114 -16 -250 -32 -136 -15 -251 -30 -257 -32 -10 -3 38
-10 868 -117 297 -39 544 -72 550 -73 10 -4 -83 -13 -875 -92 -305 -30 -559
-57 -565 -59 -5 -1 10 -6 35 -9 799 -113 1396 -199 1399 -203 2 -2 -4 -4 -15
-4 -11 0 -148 -11 -304 -25 -157 -14 -442 -39 -635 -55 -466 -41 -486 -42
-482 -46 2 -2 88 -19 192 -39 104 -20 190 -37 192 -38 1 -2 -36 -219 -82 -482
-47 -264 -101 -572 -121 -685 -19 -113 -38 -213 -40 -222 -5 -17 -44 -18 -640
-18 -349 0 -634 -2 -634 -5 0 -2 124 -153 275 -334 151 -182 275 -335 275
-341 0 -6 -124 -160 -275 -343 l-276 -332 730 -3 731 -2 120 -99 c1436 -1177
3430 -1166 4852 26 l87 73 732 2 731 3 -276 334 c-152 184 -276 337 -276 340
0 4 124 156 275 338 151 183 275 335 275 338 0 3 -288 5 -640 5 -601 0 -640 1
-640 17 0 33 -188 1028 -400 2113 -283 1450 -417 2163 -570 3019 -38 217 -73
397 -77 401 -11 9 -1618 560 -1629 559 -5 -1 -381 -126 -836 -279z m1065 -238
c133 -62 250 -213 305 -392 48 -158 54 -386 13 -543 -36 -137 -152 -328 -296
-489 -80 -89 -80 -92 -67 -477 7 -185 12 -401 12 -482 l0 -145 338 -92 c185
-51 342 -92 348 -92 6 0 14 28 18 65 7 68 -4 106 -40 136 -10 8 -30 32 -46 53
-27 38 -28 43 -28 160 0 283 108 931 195 1171 107 297 269 532 387 564 143 40
156 -54 84 -584 -20 -143 -52 -404 -71 -580 -61 -550 -99 -753 -145 -785 -18
-13 -30 -56 -46 -164 -9 -64 -15 -118 -13 -120 4 -3 231 -66 635 -177 l191
-52 52 -301 c115 -659 176 -978 285 -1501 62 -300 146 -732 146 -754 0 -8
-696 -11 -2524 -11 l-2523 0 72 427 c40 236 92 527 115 648 24 121 45 235 48
253 2 18 8 35 14 38 5 3 65 -5 134 -17 l124 -23 0 -507 c0 -547 0 -543 54
-602 52 -56 95 -67 267 -67 l156 0 11 51 c23 98 70 179 151 260 145 145 334
200 529 154 192 -45 360 -209 409 -396 l17 -69 555 2 554 3 16 60 c68 244 291
414 546 415 250 0 473 -172 541 -419 l17 -61 122 0 c67 0 137 5 156 11 53 18
99 58 120 103 17 38 19 72 19 456 0 415 0 415 -24 465 -18 40 -111 137 -455
477 -257 255 -448 437 -473 450 -41 22 -56 23 -285 26 l-243 3 0 80 c0 44 -5
101 -12 126 -14 59 -78 127 -133 142 -28 8 -400 11 -1245 11 -1153 0 -1207 -1
-1245 -19 -75 -35 -125 -107 -125 -179 0 -39 0 -39 -47 -46 -25 -3 -47 -5 -49
-4 -1 2 10 72 25 157 23 131 30 155 47 161 11 4 231 65 489 135 259 70 471
128 472 129 1 1 -4 92 -12 202 -37 502 -29 467 -128 542 -99 74 -169 151 -203
222 -64 133 -97 284 -114 530 -12 173 -10 532 4 563 10 21 54 33 75 20 11 -7
25 -64 47 -199 83 -489 96 -560 111 -576 20 -22 86 -24 103 -3 14 17 12 126
-11 522 -14 245 -11 272 34 287 34 12 56 1 75 -37 7 -14 35 -170 62 -346 27
-176 52 -332 56 -348 15 -64 62 -81 110 -40 l27 24 -17 383 c-17 404 -17 410
28 410 46 0 57 -22 96 -182 67 -283 105 -571 97 -738 -9 -197 -38 -284 -129
-391 -97 -114 -108 -136 -108 -206 0 -35 11 -129 24 -210 14 -82 30 -194 37
-251 11 -85 16 -102 29 -99 8 2 161 44 340 92 179 48 328 90 332 94 7 7 34
791 30 894 -3 81 -16 111 -87 192 -146 168 -247 336 -280 465 -37 144 -37 367
0 512 23 87 87 221 138 286 54 70 131 128 210 158 55 21 76 24 182 21 112 -2
125 -4 188 -35z m1020 -3789 c524 -503 538 -517 535 -537 -3 -21 -6 -21 -418
-21 l-415 0 -3 319 c-2 227 1 323 9 332 8 10 37 14 96 14 l84 0 112 -107z
m487 -938 l0 -55 -1665 0 -1665 0 0 55 0 55 1665 0 1665 0 0 -55z m-1756 -301
c9 -36 -2 -43 -23 -15 -11 14 -25 22 -37 19 -17 -3 -19 -14 -22 -110 -3 -101
-2 -107 18 -110 41 -6 19 -23 -35 -26 -44 -2 -55 0 -55 13 0 8 9 15 20 15 19
0 20 7 20 110 0 110 0 110 -24 110 -16 0 -27 -7 -31 -20 -10 -30 -25 -24 -25
10 l0 30 94 0 c93 0 94 0 100 -26z m86 16 c0 -5 -4 -10 -10 -10 -5 0 -10 -20
-10 -45 l0 -45 55 0 55 0 0 45 c0 25 -4 45 -10 45 -5 0 -10 5 -10 10 0 6 16
10 35 10 19 0 35 -4 35 -10 0 -5 -4 -10 -10 -10 -6 0 -10 -43 -10 -110 0 -67
4 -110 10 -110 6 0 10 -7 10 -15 0 -10 -11 -15 -35 -15 -24 0 -35 5 -35 15 0
8 5 15 10 15 6 0 10 23 10 50 l0 50 -55 0 -55 0 0 -50 c0 -27 5 -50 10 -50 6
0 10 -7 10 -15 0 -10 -11 -15 -35 -15 -24 0 -35 5 -35 15 0 8 5 15 10 15 6 0
10 42 10 106 0 90 -3 109 -17 120 -16 12 -13 13 25 14 23 0 42 -4 42 -10z
m324 -16 c9 -36 -2 -43 -23 -16 -13 18 -25 23 -52 20 -33 -3 -34 -4 -34 -48 0
-43 1 -45 33 -48 17 -2 32 -7 32 -12 0 -5 -15 -10 -32 -12 -32 -3 -33 -5 -33
-48 l0 -45 42 -3 c34 -3 42 0 48 17 10 33 27 24 23 -11 l-3 -33 -74 -3 c-72
-3 -114 10 -78 24 14 5 17 22 17 110 0 84 -3 106 -15 110 -36 14 -9 24 64 24
77 0 79 -1 85 -26z m-2950 -831 c3 -16 8 -53 11 -83 3 -30 8 -67 11 -82 5 -26
3 -28 -28 -28 -33 0 -35 2 -54 63 l-20 62 -132 3 -132 3 0 -156 0 -155 100 0
100 0 0 -40 0 -40 -100 0 -100 0 0 -149 0 -149 28 -6 c15 -3 50 -8 77 -11 80
-10 87 -14 83 -43 l-3 -27 -172 -3 -173 -2 0 34 c0 32 3 36 35 42 l35 6 0 354
0 354 -35 0 c-34 0 -35 1 -35 40 l0 40 249 0 249 0 6 -27z m511 -6 c81 -41
133 -105 175 -212 21 -53 24 -77 24 -195 0 -118 -3 -142 -24 -195 -29 -75 -44
-100 -89 -148 -104 -112 -291 -127 -412 -34 -182 139 -213 501 -58 696 40 52
107 98 162 112 61 16 168 4 222 -24z m730 3 c133 -65 205 -208 205 -410 0
-156 -39 -269 -121 -351 -63 -63 -118 -84 -219 -84 -102 1 -157 22 -219 84
-82 82 -125 207 -124 356 1 209 97 372 246 421 62 20 173 13 232 -16z m566 16
c178 -38 289 -152 320 -331 34 -195 -41 -390 -178 -467 -83 -47 -141 -58 -305
-58 l-148 0 0 34 c0 29 4 34 33 42 l32 10 3 352 2 352 -35 0 c-34 0 -35 1 -35
40 l0 40 123 0 c67 0 152 -7 188 -14z m1176 -71 c18 -123 18 -125 -16 -125
-27 0 -32 6 -53 60 l-23 60 -87 0 -88 0 0 -345 0 -345 23 -5 c12 -2 45 -8 72
-13 47 -7 50 -9 53 -40 l3 -32 -191 0 -191 0 3 32 c3 31 6 33 53 40 28 5 60
11 73 13 l22 5 0 345 0 345 -89 0 -89 0 -22 -60 c-20 -54 -25 -60 -51 -60 -34
0 -34 -2 -17 122 l12 88 295 -2 296 -3 12 -80z m414 61 c59 -22 114 -68 142
-119 28 -53 31 -184 4 -233 -28 -54 -68 -94 -118 -120 l-48 -24 36 -78 c19
-42 47 -103 61 -134 24 -52 30 -58 69 -67 39 -10 43 -14 43 -41 l0 -30 -77 0
-78 0 -74 165 -74 165 -59 0 -59 0 3 -122 3 -122 45 -11 c41 -10 45 -14 48
-43 l3 -32 -125 0 c-94 0 -126 3 -126 13 0 6 -3 22 -6 33 -5 18 0 22 30 28
l36 7 0 354 0 355 -35 0 c-34 0 -35 1 -35 41 l0 41 173 -4 c126 -4 184 -10
218 -22z m423 -8 c7 -35 -4 -48 -41 -48 l-23 0 0 -292 c0 -285 1 -294 23 -333
34 -61 93 -87 184 -83 79 4 111 20 150 77 30 44 34 99 31 381 l-3 245 -35 5
c-32 5 -35 8 -38 43 l-3 37 109 0 110 0 6 -32 c7 -35 -4 -48 -41 -48 l-22 0
-3 -307 c-3 -295 -4 -310 -25 -349 -12 -22 -38 -55 -58 -72 -58 -52 -100 -65
-200 -66 -82 -1 -95 2 -144 29 -29 16 -65 44 -78 62 -49 64 -52 87 -53 406 l0
297 -35 0 c-34 0 -35 1 -35 40 l0 40 109 0 109 0 6 -32z m1054 17 c8 -7 29
-194 23 -200 -2 -3 -19 -5 -37 -5 -26 0 -33 5 -38 28 -4 15 -12 44 -17 65
l-10 37 -58 0 c-149 0 -265 -81 -318 -222 -24 -66 -21 -199 6 -269 46 -120
151 -197 280 -207 64 -4 98 2 172 33 12 5 19 -2 28 -26 16 -47 15 -48 -36 -72
-68 -31 -223 -30 -306 2 -70 28 -162 110 -200 179 -96 177 -65 415 73 552 52
53 129 96 194 110 42 9 234 5 244 -5z m297 -25 c0 -32 -3 -35 -32 -38 l-33 -3
0 -212 c0 -189 2 -210 15 -196 9 8 87 103 174 210 168 206 168 207 93 208 -31
1 -33 3 -30 34 l3 32 123 3 122 3 0 -36 c0 -28 -4 -36 -24 -41 -19 -4 -195
-208 -262 -303 -9 -13 9 -52 100 -211 107 -187 112 -195 149 -203 34 -8 37
-12 37 -43 l0 -34 -68 0 -68 0 -104 188 c-57 103 -107 193 -113 199 -7 9 -28
-11 -78 -73 l-69 -87 0 -73 0 -73 33 -3 c29 -3 32 -6 35 -40 l3 -38 -110 0
-111 0 0 34 c0 29 4 34 30 40 l30 6 0 355 0 355 -35 0 c-34 0 -35 1 -35 40 l0
41 113 -3 112 -3 0 -35z m-475 -1101 c-249 -200 -632 -422 -920 -534 -425
-166 -801 -237 -1250 -237 -522 0 -993 107 -1475 336 -202 96 -492 275 -654
406 l-64 50 2194 0 2194 0 -25 -21z"/>
<path d="M3095 3247 c-144 -48 -266 -175 -291 -304 l-6 -33 417 0 418 0 -7 33
c-21 107 -121 227 -233 280 -59 27 -80 32 -163 34 -59 2 -110 -2 -135 -10z"/>
<path d="M5299 3237 c-80 -34 -121 -61 -168 -113 -45 -48 -101 -155 -101 -191
l0 -23 416 0 416 0 -6 28 c-29 116 -121 230 -233 284 -60 28 -79 32 -168 35
-87 3 -107 1 -156 -20z"/>
<path d="M1955 2422 c-84 -40 -138 -129 -157 -261 -26 -189 44 -360 168 -407
53 -20 133 -15 188 11 77 37 133 148 143 285 10 146 -41 293 -124 353 -55 39
-156 48 -218 19z"/>
<path d="M2685 2421 c-106 -48 -161 -180 -153 -367 3 -81 9 -110 31 -159 48
-103 116 -154 207 -155 107 0 178 48 225 152 40 89 47 244 16 346 -40 132
-120 202 -231 202 -32 0 -72 -8 -95 -19z"/>
<path d="M3330 2096 l0 -346 73 0 c92 0 154 21 210 70 53 47 82 110 98 210 26
168 -49 321 -188 382 -25 11 -78 22 -119 25 l-74 6 0 -347z"/>
<path d="M4840 2259 l0 -181 88 4 c100 4 154 25 188 76 46 68 37 171 -20 228
-39 39 -89 54 -183 54 l-73 0 0 -181z"/>
<path d="M3240 1301 c0 -10 9 -21 20 -24 19 -5 20 -14 20 -175 0 -163 -1 -172
-21 -186 -13 -9 -19 -21 -16 -30 5 -13 27 -16 131 -16 69 0 127 3 129 8 3 4 7
29 8 56 5 62 -15 73 -36 22 l-15 -36 -70 0 -70 0 0 180 c0 173 1 180 20 180
13 0 20 7 20 20 0 18 -7 20 -60 20 -52 0 -60 -2 -60 -19z"/>
<path d="M3530 1300 c0 -11 7 -20 15 -20 12 0 15 -20 16 -117 1 -200 -1 -237
-17 -246 -8 -4 -14 -17 -14 -27 0 -19 8 -20 201 -20 183 1 200 2 197 18 -2 9
-14 18 -27 20 -21 3 -22 7 -16 39 15 81 17 83 94 83 l70 0 11 -41 c6 -22 14
-47 17 -54 3 -9 -5 -18 -21 -25 -14 -5 -26 -16 -26 -25 0 -22 118 -22 127 0 3
9 -1 21 -10 28 -8 7 -36 80 -62 162 -82 267 -73 245 -105 245 -24 0 -31 -5
-38 -32 -35 -126 -107 -355 -115 -365 -17 -23 -27 -13 -27 27 0 49 -16 52 -36
5 l-14 -35 -71 0 -70 0 3 78 3 77 53 3 c44 3 52 6 52 23 0 16 -7 19 -55 19
l-55 0 0 75 0 75 69 0 c69 0 69 0 76 -30 5 -21 12 -30 27 -30 16 0 19 5 14 23
-3 12 -6 37 -6 55 l0 32 -130 0 c-123 0 -130 -1 -130 -20z m479 -137 c11 -39
21 -76 21 -82 0 -7 -22 -11 -55 -11 -30 0 -55 1 -55 3 0 1 7 25 15 52 9 28 20
67 26 89 13 48 21 40 48 -51z"/>
<path d="M4297 1310 c-44 -13 -95 -57 -119 -103 -34 -64 -32 -167 5 -229 47
-80 133 -117 242 -103 l55 6 0 100 0 100 -57 -3 c-51 -3 -58 -6 -61 -25 -3
-20 1 -23 32 -23 l36 0 0 -55 0 -55 -52 0 c-112 1 -183 79 -176 193 7 96 70
157 163 157 50 0 53 -1 59 -30 4 -21 11 -30 26 -30 17 0 20 6 20 49 0 42 -3
49 -22 55 -32 8 -117 6 -151 -4z"/>
<path d="M4510 1300 c0 -13 7 -20 20 -20 19 0 20 -7 20 -166 l0 -166 33 -33
c59 -59 155 -59 214 0 l33 33 0 166 c0 159 1 166 20 166 13 0 20 7 20 20 0 18
-7 20 -60 20 -53 0 -60 -2 -60 -20 0 -13 7 -20 20 -20 19 0 20 -7 20 -155 0
-152 -1 -156 -25 -180 -35 -36 -112 -35 -146 1 -23 24 -24 32 -27 180 -3 150
-3 154 17 154 14 0 21 6 21 20 0 18 -7 20 -60 20 -53 0 -60 -2 -60 -20z"/>
<path d="M4890 1300 c0 -13 7 -20 20 -20 19 0 20 -7 20 -180 0 -99 -3 -180 -7
-180 -19 -1 -33 -18 -27 -33 5 -15 24 -17 134 -17 l128 0 7 56 c4 31 4 58 1
61 -12 12 -35 -8 -41 -36 -7 -31 -7 -31 -76 -31 l-69 0 0 80 0 80 50 0 c43 0
50 3 50 20 0 17 -7 20 -50 20 l-50 0 0 75 0 75 66 0 c63 0 65 -1 75 -30 15
-41 39 -39 39 3 0 79 2 77 -141 77 -122 0 -129 -1 -129 -20z"/>
</g>
</svg>
